<mxfile host="app.diagrams.net" modified="2023-05-31T11:02:09.405Z" agent="Mozilla/5.0 (Windows NT 10.0; Win64; x64) AppleWebKit/537.36 (KHTML, like Gecko) Chrome/113.0.0.0 Safari/537.36" etag="AsTpGHoV3ScwVMgD13-0" version="21.3.5" type="device">
  <diagram name="Page-1" id="Qs_2nJS1f51r6cSboJnc">
    <mxGraphModel dx="2045" dy="663" grid="1" gridSize="10" guides="1" tooltips="1" connect="1" arrows="1" fold="1" page="1" pageScale="1" pageWidth="850" pageHeight="1100" math="0" shadow="0">
      <root>
        <mxCell id="0" />
        <mxCell id="1" parent="0" />
        <mxCell id="GvqU-BxOqDRdRS-n0hCH-2" value="Road&lt;br&gt;" style="swimlane;fontStyle=1;align=center;verticalAlign=top;childLayout=stackLayout;horizontal=1;startSize=26;horizontalStack=0;resizeParent=1;resizeParentMax=0;resizeLast=0;collapsible=1;marginBottom=0;whiteSpace=wrap;html=1;" parent="1" vertex="1">
          <mxGeometry x="50" y="170" width="280" height="300" as="geometry" />
        </mxCell>
        <mxCell id="GvqU-BxOqDRdRS-n0hCH-3" value="- Name:string&lt;br&gt;- Lines:List&amp;lt;Line&amp;gt;&lt;br&gt;- TrafficLight:TrafficLight&amp;nbsp;&lt;br&gt;&amp;nbsp;" style="text;strokeColor=none;fillColor=none;align=left;verticalAlign=top;spacingLeft=4;spacingRight=4;overflow=hidden;rotatable=0;points=[[0,0.5],[1,0.5]];portConstraint=eastwest;whiteSpace=wrap;html=1;" parent="GvqU-BxOqDRdRS-n0hCH-2" vertex="1">
          <mxGeometry y="26" width="280" height="54" as="geometry" />
        </mxCell>
        <mxCell id="GvqU-BxOqDRdRS-n0hCH-4" value="" style="line;strokeWidth=1;fillColor=none;align=left;verticalAlign=middle;spacingTop=-1;spacingLeft=3;spacingRight=3;rotatable=0;labelPosition=right;points=[];portConstraint=eastwest;strokeColor=inherit;" parent="GvqU-BxOqDRdRS-n0hCH-2" vertex="1">
          <mxGeometry y="80" width="280" height="8" as="geometry" />
        </mxCell>
        <mxCell id="GvqU-BxOqDRdRS-n0hCH-5" value="+ Road(string name, TrafficLight trafficLight, int countLines)&lt;br&gt;-&amp;nbsp; InitLine(int Count):void&lt;br&gt;- Line_LineChanged(Line obj):void&lt;br&gt;- TrafficLight_StateChanged(TrafficLight obj):void&lt;br&gt;+ Start(TrafficLightState trafficLightState = TrafficLightState.Red):void&lt;br&gt;+ Stop():void&lt;br&gt;+ AssignTrafficLight(int currentLine, TrafficLight trafficLight):void&lt;br&gt;+ ToString():string&lt;br&gt;&lt;br&gt;&lt;br&gt;" style="text;strokeColor=none;fillColor=none;align=left;verticalAlign=top;spacingLeft=4;spacingRight=4;overflow=hidden;rotatable=0;points=[[0,0.5],[1,0.5]];portConstraint=eastwest;whiteSpace=wrap;html=1;" parent="GvqU-BxOqDRdRS-n0hCH-2" vertex="1">
          <mxGeometry y="88" width="280" height="212" as="geometry" />
        </mxCell>
        <mxCell id="GvqU-BxOqDRdRS-n0hCH-6" value="CrossRoadManager&lt;br&gt;" style="swimlane;fontStyle=1;align=center;verticalAlign=top;childLayout=stackLayout;horizontal=1;startSize=26;horizontalStack=0;resizeParent=1;resizeParentMax=0;resizeLast=0;collapsible=1;marginBottom=0;whiteSpace=wrap;html=1;" parent="1" vertex="1">
          <mxGeometry x="-470" y="280" width="450" height="170" as="geometry" />
        </mxCell>
        <mxCell id="GvqU-BxOqDRdRS-n0hCH-7" value="&lt;div&gt;- schemeCrossRoads:List&amp;lt;ISchemeCrossRoads&amp;gt;&lt;/div&gt;" style="text;strokeColor=none;fillColor=none;align=left;verticalAlign=top;spacingLeft=4;spacingRight=4;overflow=hidden;rotatable=0;points=[[0,0.5],[1,0.5]];portConstraint=eastwest;whiteSpace=wrap;html=1;" parent="GvqU-BxOqDRdRS-n0hCH-6" vertex="1">
          <mxGeometry y="26" width="450" height="34" as="geometry" />
        </mxCell>
        <mxCell id="GvqU-BxOqDRdRS-n0hCH-8" value="" style="line;strokeWidth=1;fillColor=none;align=left;verticalAlign=middle;spacingTop=-1;spacingLeft=3;spacingRight=3;rotatable=0;labelPosition=right;points=[];portConstraint=eastwest;strokeColor=inherit;" parent="GvqU-BxOqDRdRS-n0hCH-6" vertex="1">
          <mxGeometry y="60" width="450" height="8" as="geometry" />
        </mxCell>
        <mxCell id="GvqU-BxOqDRdRS-n0hCH-9" value="+ CrossRoadManager(List&amp;lt;ISchemeCrossRoads&amp;gt; schemeCrossRoads)&lt;br&gt;+ CrossRoadManager(ISchemeCrossRoads schemeCrossRoads)&lt;br&gt;+AddScheme(ISchemeCrossRoads schemeCrossRoads):void&amp;nbsp;&lt;br&gt;+Work(): void&lt;br&gt;+ Stop():void&lt;br&gt;+ ToString():string" style="text;strokeColor=none;fillColor=none;align=left;verticalAlign=top;spacingLeft=4;spacingRight=4;overflow=hidden;rotatable=0;points=[[0,0.5],[1,0.5]];portConstraint=eastwest;whiteSpace=wrap;html=1;" parent="GvqU-BxOqDRdRS-n0hCH-6" vertex="1">
          <mxGeometry y="68" width="450" height="102" as="geometry" />
        </mxCell>
        <mxCell id="GvqU-BxOqDRdRS-n0hCH-11" value="ISchemeCrossRoads&lt;br&gt;&amp;lt;interface&amp;gt;" style="swimlane;fontStyle=1;align=center;verticalAlign=top;childLayout=stackLayout;horizontal=1;startSize=56;horizontalStack=0;resizeParent=1;resizeParentMax=0;resizeLast=0;collapsible=1;marginBottom=0;whiteSpace=wrap;html=1;" parent="1" vertex="1">
          <mxGeometry x="-750" y="610" width="170" height="140" as="geometry" />
        </mxCell>
        <mxCell id="GvqU-BxOqDRdRS-n0hCH-13" value="" style="line;strokeWidth=1;fillColor=none;align=left;verticalAlign=middle;spacingTop=-1;spacingLeft=3;spacingRight=3;rotatable=0;labelPosition=right;points=[];portConstraint=eastwest;strokeColor=inherit;" parent="GvqU-BxOqDRdRS-n0hCH-11" vertex="1">
          <mxGeometry y="56" width="170" height="24" as="geometry" />
        </mxCell>
        <mxCell id="GvqU-BxOqDRdRS-n0hCH-14" value="+ Start():void&lt;br&gt;+Stop():void" style="text;strokeColor=none;fillColor=none;align=left;verticalAlign=top;spacingLeft=4;spacingRight=4;overflow=hidden;rotatable=0;points=[[0,0.5],[1,0.5]];portConstraint=eastwest;whiteSpace=wrap;html=1;" parent="GvqU-BxOqDRdRS-n0hCH-11" vertex="1">
          <mxGeometry y="80" width="170" height="60" as="geometry" />
        </mxCell>
        <mxCell id="GvqU-BxOqDRdRS-n0hCH-15" value="Line" style="swimlane;fontStyle=1;align=center;verticalAlign=top;childLayout=stackLayout;horizontal=1;startSize=26;horizontalStack=0;resizeParent=1;resizeParentMax=0;resizeLast=0;collapsible=1;marginBottom=0;whiteSpace=wrap;html=1;" parent="1" vertex="1">
          <mxGeometry x="100" y="593" width="230" height="240" as="geometry" />
        </mxCell>
        <mxCell id="GvqU-BxOqDRdRS-n0hCH-16" value="- Name:string&lt;br&gt;- TrafficLight:TrafficLight&amp;nbsp;&lt;br&gt;- Width: double&lt;br&gt;+ &amp;lt;event Action&amp;lt;Line&amp;gt;&amp;gt; LineChanged;" style="text;strokeColor=none;fillColor=none;align=left;verticalAlign=top;spacingLeft=4;spacingRight=4;overflow=hidden;rotatable=0;points=[[0,0.5],[1,0.5]];portConstraint=eastwest;whiteSpace=wrap;html=1;" parent="GvqU-BxOqDRdRS-n0hCH-15" vertex="1">
          <mxGeometry y="26" width="230" height="74" as="geometry" />
        </mxCell>
        <mxCell id="GvqU-BxOqDRdRS-n0hCH-17" value="" style="line;strokeWidth=1;fillColor=none;align=left;verticalAlign=middle;spacingTop=-1;spacingLeft=3;spacingRight=3;rotatable=0;labelPosition=right;points=[];portConstraint=eastwest;strokeColor=inherit;" parent="GvqU-BxOqDRdRS-n0hCH-15" vertex="1">
          <mxGeometry y="100" width="230" height="8" as="geometry" />
        </mxCell>
        <mxCell id="GvqU-BxOqDRdRS-n0hCH-18" value="+ Line(string name, TrafficLight trafficLight = null, double width = 2.5d)&lt;br&gt;-TrafficLight_StateChanged(TrafficLight obj):void&amp;nbsp;&lt;br&gt;+ Start():void&lt;br&gt;+ Stop():void&lt;br&gt;+ ToString():string" style="text;strokeColor=none;fillColor=none;align=left;verticalAlign=top;spacingLeft=4;spacingRight=4;overflow=hidden;rotatable=0;points=[[0,0.5],[1,0.5]];portConstraint=eastwest;whiteSpace=wrap;html=1;" parent="GvqU-BxOqDRdRS-n0hCH-15" vertex="1">
          <mxGeometry y="108" width="230" height="132" as="geometry" />
        </mxCell>
        <mxCell id="GvqU-BxOqDRdRS-n0hCH-19" value="ParallelCrossRoad" style="swimlane;fontStyle=1;align=center;verticalAlign=top;childLayout=stackLayout;horizontal=1;startSize=26;horizontalStack=0;resizeParent=1;resizeParentMax=0;resizeLast=0;collapsible=1;marginBottom=0;whiteSpace=wrap;html=1;" parent="1" vertex="1">
          <mxGeometry x="-395" y="566" width="300" height="240" as="geometry" />
        </mxCell>
        <mxCell id="GvqU-BxOqDRdRS-n0hCH-20" value="&lt;div&gt;- name:string: Road&lt;/div&gt;&lt;div&gt;&lt;span style=&quot;background-color: initial;&quot;&gt;- northSouth: Road&lt;/span&gt;&lt;/div&gt;&lt;div&gt;- southNorth: Road&lt;/div&gt;&lt;div&gt;- eastWest Road&lt;/div&gt;&lt;div&gt;- westEastRoad&lt;/div&gt;" style="text;strokeColor=none;fillColor=none;align=left;verticalAlign=top;spacingLeft=4;spacingRight=4;overflow=hidden;rotatable=0;points=[[0,0.5],[1,0.5]];portConstraint=eastwest;whiteSpace=wrap;html=1;" parent="GvqU-BxOqDRdRS-n0hCH-19" vertex="1">
          <mxGeometry y="26" width="300" height="84" as="geometry" />
        </mxCell>
        <mxCell id="GvqU-BxOqDRdRS-n0hCH-21" value="" style="line;strokeWidth=1;fillColor=none;align=left;verticalAlign=middle;spacingTop=-1;spacingLeft=3;spacingRight=3;rotatable=0;labelPosition=right;points=[];portConstraint=eastwest;strokeColor=inherit;" parent="GvqU-BxOqDRdRS-n0hCH-19" vertex="1">
          <mxGeometry y="110" width="300" height="8" as="geometry" />
        </mxCell>
        <mxCell id="GvqU-BxOqDRdRS-n0hCH-22" value="+ ParallelCrossRoad(string name, Road northSouth, Road southNorth, Road eastWest, Road westEast)&lt;br&gt;+ Start():void&lt;br&gt;+ Stop():void&lt;br&gt;+ AddTrafficLightInLine(string roadName, int line, TrafficLight trafficLight): void&lt;br&gt;+ToString(): string" style="text;strokeColor=none;fillColor=none;align=left;verticalAlign=top;spacingLeft=4;spacingRight=4;overflow=hidden;rotatable=0;points=[[0,0.5],[1,0.5]];portConstraint=eastwest;whiteSpace=wrap;html=1;" parent="GvqU-BxOqDRdRS-n0hCH-19" vertex="1">
          <mxGeometry y="118" width="300" height="122" as="geometry" />
        </mxCell>
        <mxCell id="GvqU-BxOqDRdRS-n0hCH-23" value="Simulator" style="swimlane;fontStyle=1;align=center;verticalAlign=top;childLayout=stackLayout;horizontal=1;startSize=26;horizontalStack=0;resizeParent=1;resizeParentMax=0;resizeLast=0;collapsible=1;marginBottom=0;whiteSpace=wrap;html=1;" parent="1" vertex="1">
          <mxGeometry x="-370" y="10" width="250" height="188" as="geometry" />
        </mxCell>
        <mxCell id="GvqU-BxOqDRdRS-n0hCH-24" value="-&amp;lt;static&amp;gt; simulator:Simulator&lt;br&gt;-crossRoadManager:CrossRoadManager&lt;br&gt;-parallelCross:ParallelCrossRoad&amp;nbsp;" style="text;strokeColor=none;fillColor=none;align=left;verticalAlign=top;spacingLeft=4;spacingRight=4;overflow=hidden;rotatable=0;points=[[0,0.5],[1,0.5]];portConstraint=eastwest;whiteSpace=wrap;html=1;" parent="GvqU-BxOqDRdRS-n0hCH-23" vertex="1">
          <mxGeometry y="26" width="250" height="54" as="geometry" />
        </mxCell>
        <mxCell id="GvqU-BxOqDRdRS-n0hCH-25" value="" style="line;strokeWidth=1;fillColor=none;align=left;verticalAlign=middle;spacingTop=-1;spacingLeft=3;spacingRight=3;rotatable=0;labelPosition=right;points=[];portConstraint=eastwest;strokeColor=inherit;" parent="GvqU-BxOqDRdRS-n0hCH-23" vertex="1">
          <mxGeometry y="80" width="250" height="8" as="geometry" />
        </mxCell>
        <mxCell id="GvqU-BxOqDRdRS-n0hCH-26" value="- Simulator()&lt;br&gt;- InitParallelCrossRoad():void&amp;nbsp;&lt;br&gt;+ Start():void&amp;nbsp;&lt;br&gt;+ &amp;lt;static&amp;gt; GetSimulator():Simulator&amp;nbsp;" style="text;strokeColor=none;fillColor=none;align=left;verticalAlign=top;spacingLeft=4;spacingRight=4;overflow=hidden;rotatable=0;points=[[0,0.5],[1,0.5]];portConstraint=eastwest;whiteSpace=wrap;html=1;" parent="GvqU-BxOqDRdRS-n0hCH-23" vertex="1">
          <mxGeometry y="88" width="250" height="100" as="geometry" />
        </mxCell>
        <mxCell id="GvqU-BxOqDRdRS-n0hCH-27" value="TrafficLight" style="swimlane;fontStyle=1;align=center;verticalAlign=top;childLayout=stackLayout;horizontal=1;startSize=26;horizontalStack=0;resizeParent=1;resizeParentMax=0;resizeLast=0;collapsible=1;marginBottom=0;whiteSpace=wrap;html=1;" parent="1" vertex="1">
          <mxGeometry x="500" y="322" width="330" height="368" as="geometry" />
        </mxCell>
        <mxCell id="GvqU-BxOqDRdRS-n0hCH-28" value="&lt;div&gt;# currentState :TrafficLightState&lt;/div&gt;&lt;div&gt;# previousState:TrafficLightState&amp;nbsp;&amp;nbsp;&lt;/div&gt;&lt;div&gt;&lt;span style=&quot;background-color: initial;&quot;&gt;# timer: Timer&lt;/span&gt;&lt;/div&gt;&lt;div&gt;&lt;br&gt;&lt;/div&gt;&lt;div&gt;# intervalForRedState: int&lt;/div&gt;&lt;div&gt;# intervalForYellowState: int&lt;/div&gt;&lt;div&gt;# intervalForGreenState: int&lt;/div&gt;&lt;div&gt;&lt;br&gt;&lt;/div&gt;&lt;div&gt;+&amp;nbsp; StateChanged:event Action&amp;lt;TrafficLight&amp;gt;&lt;/div&gt;" style="text;strokeColor=none;fillColor=none;align=left;verticalAlign=top;spacingLeft=4;spacingRight=4;overflow=hidden;rotatable=0;points=[[0,0.5],[1,0.5]];portConstraint=eastwest;whiteSpace=wrap;html=1;" parent="GvqU-BxOqDRdRS-n0hCH-27" vertex="1">
          <mxGeometry y="26" width="330" height="154" as="geometry" />
        </mxCell>
        <mxCell id="GvqU-BxOqDRdRS-n0hCH-29" value="" style="line;strokeWidth=1;fillColor=none;align=left;verticalAlign=middle;spacingTop=-1;spacingLeft=3;spacingRight=3;rotatable=0;labelPosition=right;points=[];portConstraint=eastwest;strokeColor=inherit;" parent="GvqU-BxOqDRdRS-n0hCH-27" vertex="1">
          <mxGeometry y="180" width="330" height="8" as="geometry" />
        </mxCell>
        <mxCell id="GvqU-BxOqDRdRS-n0hCH-30" value="+ TrafficLight(int intervalForRedState = 5000, int intervalForYellowState = 2500, int intervalForGreenState = 5000)&lt;br&gt;+ &amp;lt;virtual&amp;gt; Start(TrafficLightState startState = TrafficLightState.Red): void&lt;br&gt;+ &amp;lt;virtual&amp;gt; Stop():void&amp;nbsp;&lt;br&gt;# OnStateChanged():void&lt;br&gt;+ ChangeState(object sender, ElapsedEventArgs e):void&lt;br&gt;+ ToString():string&amp;nbsp;&lt;br&gt;&lt;br&gt;" style="text;strokeColor=none;fillColor=none;align=left;verticalAlign=top;spacingLeft=4;spacingRight=4;overflow=hidden;rotatable=0;points=[[0,0.5],[1,0.5]];portConstraint=eastwest;whiteSpace=wrap;html=1;" parent="GvqU-BxOqDRdRS-n0hCH-27" vertex="1">
          <mxGeometry y="188" width="330" height="180" as="geometry" />
        </mxCell>
        <mxCell id="GvqU-BxOqDRdRS-n0hCH-31" value="TrafficLightWithTurn" style="swimlane;fontStyle=1;align=center;verticalAlign=top;childLayout=stackLayout;horizontal=1;startSize=26;horizontalStack=0;resizeParent=1;resizeParentMax=0;resizeLast=0;collapsible=1;marginBottom=0;whiteSpace=wrap;html=1;" parent="1" vertex="1">
          <mxGeometry x="525" y="790" width="280" height="258" as="geometry" />
        </mxCell>
        <mxCell id="GvqU-BxOqDRdRS-n0hCH-32" value="&lt;div&gt;+ currentTurnState:TrafficLightState&amp;nbsp;&lt;/div&gt;&lt;div&gt;&lt;span style=&quot;background-color: initial;&quot;&gt;-intervalForRedTurnState: int&lt;/span&gt;&lt;br&gt;&lt;/div&gt;&lt;div&gt;-intervalForGreenTurnState: int&lt;/div&gt;&lt;div&gt;&lt;span style=&quot;background-color: initial;&quot;&gt;-turnTimer:Timer&lt;/span&gt;&lt;br&gt;&lt;/div&gt;" style="text;strokeColor=none;fillColor=none;align=left;verticalAlign=top;spacingLeft=4;spacingRight=4;overflow=hidden;rotatable=0;points=[[0,0.5],[1,0.5]];portConstraint=eastwest;whiteSpace=wrap;html=1;" parent="GvqU-BxOqDRdRS-n0hCH-31" vertex="1">
          <mxGeometry y="26" width="280" height="64" as="geometry" />
        </mxCell>
        <mxCell id="GvqU-BxOqDRdRS-n0hCH-33" value="" style="line;strokeWidth=1;fillColor=none;align=left;verticalAlign=middle;spacingTop=-1;spacingLeft=3;spacingRight=3;rotatable=0;labelPosition=right;points=[];portConstraint=eastwest;strokeColor=inherit;" parent="GvqU-BxOqDRdRS-n0hCH-31" vertex="1">
          <mxGeometry y="90" width="280" height="8" as="geometry" />
        </mxCell>
        <mxCell id="GvqU-BxOqDRdRS-n0hCH-34" value="+ TrafficLightWithTurn(int intervalForRedTurnState = 5000, int intervalForGreenTurnState = 5000) : base()&lt;br&gt;+ Start(TrafficLightState startState = TrafficLightState.Red):void&lt;br&gt;+ Stop():void&lt;br&gt;+ ChangeTurnState(object sender, ElapsedEventArgs e):void&lt;br&gt;" style="text;strokeColor=none;fillColor=none;align=left;verticalAlign=top;spacingLeft=4;spacingRight=4;overflow=hidden;rotatable=0;points=[[0,0.5],[1,0.5]];portConstraint=eastwest;whiteSpace=wrap;html=1;" parent="GvqU-BxOqDRdRS-n0hCH-31" vertex="1">
          <mxGeometry y="98" width="280" height="160" as="geometry" />
        </mxCell>
        <mxCell id="GvqU-BxOqDRdRS-n0hCH-43" value="" style="endArrow=block;dashed=1;endFill=0;endSize=12;html=1;rounded=0;exitX=0;exitY=1;exitDx=0;exitDy=0;exitPerimeter=0;" parent="1" source="GvqU-BxOqDRdRS-n0hCH-20" target="GvqU-BxOqDRdRS-n0hCH-11" edge="1">
          <mxGeometry width="160" relative="1" as="geometry">
            <mxPoint x="80" y="520" as="sourcePoint" />
            <mxPoint x="50" y="362" as="targetPoint" />
          </mxGeometry>
        </mxCell>
        <mxCell id="GvqU-BxOqDRdRS-n0hCH-44" value="" style="endArrow=block;endSize=16;endFill=0;html=1;rounded=0;exitX=0.5;exitY=0;exitDx=0;exitDy=0;" parent="1" source="GvqU-BxOqDRdRS-n0hCH-31" target="GvqU-BxOqDRdRS-n0hCH-27" edge="1">
          <mxGeometry width="160" relative="1" as="geometry">
            <mxPoint x="710" y="570" as="sourcePoint" />
            <mxPoint x="870" y="570" as="targetPoint" />
          </mxGeometry>
        </mxCell>
        <mxCell id="GvqU-BxOqDRdRS-n0hCH-59" value="" style="endArrow=open;html=1;endSize=12;startArrow=diamondThin;startSize=14;startFill=1;edgeStyle=orthogonalEdgeStyle;align=left;verticalAlign=bottom;rounded=0;" parent="1" source="GvqU-BxOqDRdRS-n0hCH-6" target="GvqU-BxOqDRdRS-n0hCH-19" edge="1">
          <mxGeometry x="-0.7407" y="65" relative="1" as="geometry">
            <mxPoint x="210" y="270" as="sourcePoint" />
            <mxPoint x="370" y="270" as="targetPoint" />
            <mxPoint as="offset" />
          </mxGeometry>
        </mxCell>
        <mxCell id="GvqU-BxOqDRdRS-n0hCH-61" value="" style="endArrow=open;html=1;endSize=12;startArrow=diamondThin;startSize=14;startFill=1;edgeStyle=orthogonalEdgeStyle;align=left;verticalAlign=bottom;rounded=0;" parent="1" source="GvqU-BxOqDRdRS-n0hCH-19" target="GvqU-BxOqDRdRS-n0hCH-2" edge="1">
          <mxGeometry x="0.403" y="20" relative="1" as="geometry">
            <mxPoint x="500" y="410" as="sourcePoint" />
            <mxPoint x="660" y="410" as="targetPoint" />
            <mxPoint x="-20" y="17" as="offset" />
            <Array as="points">
              <mxPoint x="80" y="686" />
            </Array>
          </mxGeometry>
        </mxCell>
        <mxCell id="GvqU-BxOqDRdRS-n0hCH-62" value="1" style="endArrow=open;html=1;endSize=12;startArrow=diamondThin;startSize=14;startFill=1;edgeStyle=orthogonalEdgeStyle;align=left;verticalAlign=bottom;rounded=0;" parent="1" source="GvqU-BxOqDRdRS-n0hCH-2" target="GvqU-BxOqDRdRS-n0hCH-15" edge="1">
          <mxGeometry x="-1" y="3" relative="1" as="geometry">
            <mxPoint x="370" y="422.5" as="sourcePoint" />
            <mxPoint x="450" y="423" as="targetPoint" />
            <Array as="points">
              <mxPoint x="215" y="440" />
              <mxPoint x="215" y="440" />
            </Array>
          </mxGeometry>
        </mxCell>
        <mxCell id="GvqU-BxOqDRdRS-n0hCH-63" value="" style="endArrow=open;html=1;endSize=12;startArrow=diamondThin;startSize=14;startFill=1;edgeStyle=orthogonalEdgeStyle;align=left;verticalAlign=bottom;rounded=0;" parent="1" source="GvqU-BxOqDRdRS-n0hCH-15" target="GvqU-BxOqDRdRS-n0hCH-27" edge="1">
          <mxGeometry x="-0.878" y="60" relative="1" as="geometry">
            <mxPoint x="380" y="432.5" as="sourcePoint" />
            <mxPoint x="460" y="433" as="targetPoint" />
            <Array as="points">
              <mxPoint x="190" y="740" />
              <mxPoint x="530" y="740" />
            </Array>
            <mxPoint as="offset" />
          </mxGeometry>
        </mxCell>
        <mxCell id="GvqU-BxOqDRdRS-n0hCH-64" value="" style="endArrow=open;html=1;endSize=12;startArrow=diamondThin;startSize=14;startFill=1;edgeStyle=orthogonalEdgeStyle;align=left;verticalAlign=bottom;rounded=0;" parent="1" source="GvqU-BxOqDRdRS-n0hCH-2" target="GvqU-BxOqDRdRS-n0hCH-27" edge="1">
          <mxGeometry x="-0.3077" y="99" relative="1" as="geometry">
            <mxPoint x="390" y="442.5" as="sourcePoint" />
            <mxPoint x="470" y="443" as="targetPoint" />
            <mxPoint x="-64" y="-93" as="offset" />
          </mxGeometry>
        </mxCell>
        <mxCell id="GvqU-BxOqDRdRS-n0hCH-65" value="" style="endArrow=open;html=1;endSize=12;startArrow=diamondThin;startSize=14;startFill=1;edgeStyle=orthogonalEdgeStyle;align=left;verticalAlign=bottom;rounded=0;" parent="1" source="GvqU-BxOqDRdRS-n0hCH-6" target="GvqU-BxOqDRdRS-n0hCH-23" edge="1">
          <mxGeometry x="-0.0476" y="-145" relative="1" as="geometry">
            <mxPoint x="400" y="452.5" as="sourcePoint" />
            <mxPoint x="480" y="453" as="targetPoint" />
            <mxPoint as="offset" />
          </mxGeometry>
        </mxCell>
        <mxCell id="EE4O2bPl8Eep7Ar-mc82-5" value="TrafficLightState&lt;br&gt;&amp;lt;Enum&amp;gt;" style="swimlane;fontStyle=1;align=center;verticalAlign=top;childLayout=stackLayout;horizontal=1;startSize=50;horizontalStack=0;resizeParent=1;resizeParentMax=0;resizeLast=0;collapsible=1;marginBottom=0;whiteSpace=wrap;html=1;" parent="1" vertex="1">
          <mxGeometry x="570" y="90" width="200" height="120" as="geometry" />
        </mxCell>
        <mxCell id="EE4O2bPl8Eep7Ar-mc82-6" value="&lt;div&gt;Green,&lt;/div&gt;&lt;div&gt;&amp;nbsp;Yellow,&lt;/div&gt;&lt;div&gt;&amp;nbsp;Red&lt;/div&gt;" style="text;strokeColor=none;fillColor=none;align=left;verticalAlign=top;spacingLeft=4;spacingRight=4;overflow=hidden;rotatable=0;points=[[0,0.5],[1,0.5]];portConstraint=eastwest;whiteSpace=wrap;html=1;" parent="EE4O2bPl8Eep7Ar-mc82-5" vertex="1">
          <mxGeometry y="50" width="200" height="70" as="geometry" />
        </mxCell>
        <mxCell id="EE4O2bPl8Eep7Ar-mc82-9" value="" style="endArrow=open;html=1;endSize=12;startArrow=diamondThin;startSize=14;startFill=1;edgeStyle=orthogonalEdgeStyle;align=left;verticalAlign=bottom;rounded=0;" parent="1" source="EE4O2bPl8Eep7Ar-mc82-5" target="GvqU-BxOqDRdRS-n0hCH-27" edge="1">
          <mxGeometry x="-0.3077" y="99" relative="1" as="geometry">
            <mxPoint x="340" y="330" as="sourcePoint" />
            <mxPoint x="510" y="516" as="targetPoint" />
            <mxPoint x="-64" y="-93" as="offset" />
            <Array as="points">
              <mxPoint x="665" y="240" />
              <mxPoint x="665" y="240" />
            </Array>
          </mxGeometry>
        </mxCell>
      </root>
    </mxGraphModel>
  </diagram>
</mxfile>
